<svg width="18" height="12" viewBox="0 0 18 12" fill="none" xmlns="http://www.w3.org/2000/svg">
<path fill-rule="evenodd" clip-rule="evenodd" d="M17.7501 6.00006C17.7501 5.8343 17.6843 5.67533 17.5671 5.55812C17.4499 5.44091 17.2909 5.37506 17.1251 5.37506H2.38389L6.31764 1.44256C6.37575 1.38445 6.42185 1.31546 6.45329 1.23954C6.48474 1.16361 6.50093 1.08224 6.50093 1.00006C6.50093 0.917877 6.48474 0.836502 6.45329 0.760578C6.42185 0.684654 6.37575 0.615667 6.31764 0.557557C6.25953 0.499447 6.19054 0.453352 6.11462 0.421903C6.0387 0.390454 5.95732 0.374268 5.87514 0.374268C5.79296 0.374268 5.71159 0.390454 5.63566 0.421903C5.55974 0.453352 5.49075 0.499447 5.43264 0.557557L0.432641 5.55756C0.374437 5.61561 0.328258 5.68458 0.29675 5.76052C0.265242 5.83645 0.249023 5.91785 0.249023 6.00006C0.249023 6.08227 0.265242 6.16367 0.29675 6.2396C0.328258 6.31553 0.374437 6.3845 0.432641 6.44256L5.43264 11.4426C5.49075 11.5007 5.55974 11.5468 5.63566 11.5782C5.71159 11.6097 5.79296 11.6258 5.87514 11.6258C5.95732 11.6258 6.0387 11.6097 6.11462 11.5782C6.19054 11.5468 6.25953 11.5007 6.31764 11.4426C6.37575 11.3844 6.42185 11.3155 6.45329 11.2395C6.48474 11.1636 6.50093 11.0822 6.50093 11.0001C6.50093 10.9179 6.48474 10.8365 6.45329 10.7606C6.42185 10.6847 6.37575 10.6157 6.31764 10.5576L2.38389 6.62506H17.1251C17.2909 6.62506 17.4499 6.55921 17.5671 6.442C17.6843 6.32479 17.7501 6.16582 17.7501 6.00006Z" fill="black"/>
</svg>
