<svg width="20" height="20" viewBox="0 0 20 20" fill="none" xmlns="http://www.w3.org/2000/svg">
<path d="M16.5495 3.51273L2.61555 16.0589C2.35915 16.2898 2.33847 16.6852 2.56929 16.9416C2.80015 17.198 3.19558 17.2186 3.45194 16.9878L17.3859 4.44163C17.6422 4.21081 17.663 3.81538 17.4321 3.55898C17.2013 3.30259 16.8059 3.2819 16.5495 3.51273Z" fill="white"/>
<path d="M17.3852 15.8091L3.45127 3.26292C3.19487 3.03206 2.79945 3.05282 2.56862 3.30918C2.3378 3.56554 2.35852 3.961 2.61488 4.19183L16.5488 16.738C16.8052 16.9689 17.2007 16.9481 17.4315 16.6918C17.6623 16.4354 17.6416 16.04 17.3852 15.8091Z" fill="white"/>
<path d="M16.5486 3.51316L2.6146 16.0593C2.3582 16.2902 2.33752 16.6856 2.56834 16.942C2.7992 17.1984 3.19463 17.2191 3.45099 16.9883L17.3849 4.44206C17.6413 4.21121 17.662 3.81577 17.4312 3.55942C17.2004 3.30299 16.8049 3.2823 16.5486 3.51316Z" fill="white"/>
</svg>
