
















































































<svg width="33" height="36" viewBox="0 0 33 36" fill="none" xmlns="http://www.w3.org/2000/svg">
<path d="M33.0002 23.1415L30.7446 21.6766V23.3496L33.0002 23.9688V23.1415Z" fill="#B63546"/>
<path d="M0 23.1415L2.25578 21.6766V23.3496L0 23.9688V23.1415Z" fill="#B63546"/>
<path d="M2.25586 9V27L16.5002 36L30.7445 27V9L16.5002 0L2.25586 9Z" fill="#F79E1B"/>
<path d="M11.3285 14.8927L16.5002 3.8817V0L2.25586 9L11.3285 14.8927Z" fill="#D38316"/>
<path d="M23.2388 21.6766L16.5 32.1183V36L30.7443 27L27.6724 25.059L23.2388 21.6766Z" fill="#FDAB3D"/>
<path d="M16.2539 27.5085L5.32763 25.0591L2.25586 27L16.5002 36V32.1183L16.2539 27.5085Z" fill="#D37200"/>
<path d="M16.7434 8.6553L27.6724 10.9409L30.7443 9L16.5 0V3.8817L16.7434 8.6553Z" fill="#FDAB3D"/>
<path d="M11.8209 21.2006L5.7888 11.2579L2.25586 9V27L5.32763 25.0591L11.8209 21.2006Z" fill="#D37200"/>
<path d="M21.1792 21.2006L27.2113 11.2579L30.7444 9V27L27.6725 25.0591L21.1792 21.2006Z" fill="#FDAB3D"/>
<path d="M5.32764 10.941V25.0591L16.5002 32.1183L27.6725 25.0591V10.941L16.5002 3.88171L5.32764 10.941Z" fill="url(#paint0_diamond_1986_19509)"/>
<path d="M10.6858 27.9938H1.41895C0.635294 27.9938 0 27.3679 0 26.5959V23.0398H9.15192C9.99898 23.0398 10.6858 23.7162 10.6858 24.5509V27.9938Z" fill="url(#paint1_linear_1986_19509)"/>
<path d="M31.5808 28.3033H22.314V24.8605C22.314 24.026 23.0006 23.3494 23.8478 23.3494H32.9998V26.9054C32.9998 27.6775 32.3645 28.3033 31.5808 28.3033Z" fill="url(#paint2_linear_1986_19509)"/>
<path d="M25.1576 30.7803H7.84283C7.41692 30.7803 7.07178 30.4401 7.07178 30.0207V24.7284C7.07178 24.3088 7.41711 23.9688 7.84283 23.9688H25.1578C25.5837 23.9688 25.9289 24.309 25.9289 24.7284V30.0207C25.9289 30.4403 25.5835 30.7803 25.1576 30.7803Z" fill="#FFCB00"/>
<path d="M16.5003 32.3286C19.2775 32.3286 21.5289 30.1106 21.5289 27.3746C21.5289 24.6386 19.2775 22.4207 16.5003 22.4207C13.7231 22.4207 11.4717 24.6386 11.4717 27.3746C11.4717 30.1106 13.7231 32.3286 16.5003 32.3286Z" fill="#EEEEEE"/>
<path d="M16.5002 31.3904C18.7515 31.3904 20.5765 29.5924 20.5765 27.3746C20.5765 25.1567 18.7515 23.3588 16.5002 23.3588C14.2489 23.3588 12.4238 25.1567 12.4238 27.3746C12.4238 29.5924 14.2489 31.3904 16.5002 31.3904Z" fill="url(#paint3_diamond_1986_19509)"/>
<path d="M16.5003 24.375L17.4895 26.3498L19.7018 26.6664L18.1011 28.2036L18.4789 30.374L16.5003 29.3493L14.5215 30.374L14.8996 28.2036L13.2988 26.6664L15.5109 26.3498L16.5003 24.375Z" fill="url(#paint4_radial_1986_19509)"/>
<path d="M16.5003 24.375L16.629 27.311L17.4895 26.3498L18.5957 26.508L19.7018 26.6664L16.629 27.311L18.1011 28.2036L18.29 29.2888L18.4789 30.374L16.629 27.311L16.5003 29.3493L15.5109 29.8618L14.5215 30.374L16.629 27.311L14.8996 28.2036L14.0991 27.435L13.2988 26.6664L16.629 27.311L15.5109 26.3498L16.0055 25.3623L16.5003 24.375Z" fill="#FFAE38"/>
<path d="M8.40115 10.9895L8.67065 9.9273C8.70518 9.79104 8.77681 9.66648 8.87767 9.56712C8.97852 9.46776 9.10496 9.3972 9.24328 9.36318L10.3215 9.09768C10.3505 9.09048 10.3505 9.0498 10.3215 9.04278L9.24328 8.77728C9.10496 8.74326 8.97852 8.6727 8.87767 8.57334C8.77681 8.47398 8.70518 8.34942 8.67065 8.21316L8.40115 7.15098C8.39384 7.12236 8.35255 7.12236 8.34542 7.15098L8.07592 8.21316C8.04139 8.34942 7.96977 8.47398 7.86891 8.57334C7.76805 8.6727 7.64161 8.74326 7.5033 8.77728L6.42511 9.04278C6.39606 9.04998 6.39606 9.09066 6.42511 9.09768L7.5033 9.36318C7.64161 9.3972 7.76805 9.46776 7.86891 9.56712C7.96977 9.66648 8.04139 9.79104 8.07592 9.9273L8.34542 10.9895C8.35273 11.0181 8.39402 11.0181 8.40115 10.9895Z" fill="white"/>
<path d="M27.603 22.6403L27.805 21.8436C27.831 21.7414 27.8847 21.6479 27.9604 21.5734C28.036 21.4989 28.1308 21.446 28.2346 21.4204L29.0433 21.2212C29.065 21.2158 29.065 21.1853 29.0433 21.1799L28.2346 20.9807C28.1308 20.9551 28.036 20.9022 27.9604 20.8277C27.8847 20.7532 27.831 20.6597 27.805 20.5575L27.603 19.7608C27.5975 19.7394 27.5666 19.7394 27.5611 19.7608L27.359 20.5575C27.3331 20.6597 27.2794 20.7532 27.2037 20.8277C27.1281 20.9022 27.0333 20.9551 26.9295 20.9807L26.1208 21.1799C26.0991 21.1853 26.0991 21.2158 26.1208 21.2212L26.9295 21.4204C27.0333 21.446 27.1281 21.4989 27.2037 21.5734C27.2794 21.6479 27.3331 21.7414 27.359 21.8436L27.5611 22.6403C27.5666 22.6617 27.5975 22.6617 27.603 22.6403Z" fill="white"/>
<path d="M13.34 13.222C13.3865 12.3028 13.7127 11.5951 14.3183 11.0988C14.9333 10.5932 15.7393 10.3405 16.7362 10.3405C17.4164 10.3405 17.9988 10.4599 18.4833 10.6989C18.9678 10.9287 19.3312 11.2458 19.5735 11.6502C19.825 12.0455 19.9508 12.4959 19.9508 13.0014C19.9508 13.5805 19.7971 14.0722 19.4896 14.4766C19.1914 14.8719 18.8327 15.1384 18.4134 15.2763V15.3314C18.9538 15.4969 19.3731 15.791 19.6713 16.2138C19.9788 16.6366 20.1325 17.1789 20.1325 17.8407C20.1325 18.3922 20.0021 18.8839 19.7412 19.3159C19.4896 19.7479 19.1122 20.088 18.6091 20.3362C18.1153 20.5752 17.5189 20.6947 16.8201 20.6947C15.7672 20.6947 14.91 20.4327 14.2484 19.9088C13.5869 19.3849 13.2375 18.6128 13.2002 17.5925H15.101C15.1196 18.0429 15.2734 18.406 15.5622 18.6817C15.8604 18.9483 16.2657 19.0816 16.7782 19.0816C17.2534 19.0816 17.6168 18.9529 17.8683 18.6955C18.1292 18.429 18.2597 18.0889 18.2597 17.6753C18.2597 17.1238 18.0826 16.7285 17.7286 16.4896C17.3745 16.2506 16.8248 16.1311 16.0793 16.1311H15.674V14.5456H16.0793C17.4025 14.5456 18.064 14.109 18.064 13.2358C18.064 12.8405 17.9429 12.5326 17.7006 12.312C17.4677 12.0914 17.1276 11.9811 16.6803 11.9811C16.2424 11.9811 15.9023 12.1006 15.6601 12.3396C15.4271 12.5694 15.292 12.8635 15.2547 13.222H13.34Z" fill="white"/>
<defs>
<radialGradient id="paint0_diamond_1986_19509" cx="0" cy="0" r="1" gradientUnits="userSpaceOnUse" gradientTransform="translate(17.1555 18.4233) rotate(69.3948) scale(13.4605 10.2541)">
<stop stop-color="#D35900"/>
<stop offset="1" stop-color="#6F1800"/>
</radialGradient>
<linearGradient id="paint1_linear_1986_19509" x1="3.39096" y1="23.3805" x2="3.85466" y2="28.1934" gradientUnits="userSpaceOnUse">
<stop stop-color="#FFB800"/>
<stop offset="1" stop-color="#FF9900"/>
</linearGradient>
<linearGradient id="paint2_linear_1986_19509" x1="25.7049" y1="23.6901" x2="26.1686" y2="28.503" gradientUnits="userSpaceOnUse">
<stop stop-color="#FFB800"/>
<stop offset="1" stop-color="#FF9900"/>
</linearGradient>
<radialGradient id="paint3_diamond_1986_19509" cx="0" cy="0" r="1" gradientUnits="userSpaceOnUse" gradientTransform="translate(16.7393 27.495) rotate(64.2531) scale(3.97877 3.60016)">
<stop stop-color="#D35900"/>
<stop offset="1" stop-color="#6F1800"/>
</radialGradient>
<radialGradient id="paint4_radial_1986_19509" cx="0" cy="0" r="1" gradientUnits="userSpaceOnUse" gradientTransform="translate(16.5003 24.375) rotate(90) scale(6.39897 6.6693)">
<stop stop-color="#E79500"/>
<stop offset="1" stop-color="#FF8A00"/>
</radialGradient>
</defs>
</svg>
