<svg width="134" height="132" viewBox="0 0 134 132" fill="none" xmlns="http://www.w3.org/2000/svg">
<path d="M0 50C0 22.3858 22.3858 0 50 0H84C92.8366 0 100 7.16344 100 16V50C100 77.6142 77.6142 100 50 100H0V50Z" fill="url(#paint0_linear_1986_22905)"/>
<path d="M0 50C0 22.3858 22.3858 0 50 0H84C92.8366 0 100 7.16344 100 16V50C100 77.6142 77.6142 100 50 100H0V50Z" fill="url(#paint1_linear_1986_22905)"/>
<path d="M10.5 50C10.5 22.6619 32.6619 0.5 60 0.5H84C92.5604 0.5 99.5 7.43959 99.5 16V50C99.5 77.3381 77.3381 99.5 50 99.5H10.5V50Z" fill="url(#paint2_linear_1986_22905)" stroke="url(#paint3_linear_1986_22905)"/>
<g filter="url(#filter0_f_1986_22905)">
<circle cx="71.5" cy="66.5" r="17.5" fill="#155C7A"/>
</g>
<path d="M96.1356 76.001C95.5255 73.724 96.0128 71.3241 97.0814 69.2228C98.9478 65.5529 100 61.3993 100 57C100 42.0883 87.9117 30 73 30C58.0883 30 46 42.0883 46 57C46 71.9117 58.0883 84 73 84C76.8784 84 80.5657 83.1823 83.8991 81.7099C85.8874 80.8316 88.102 80.4603 90.2016 81.0229L94.4305 82.156C96.0366 82.5863 97.5063 81.1166 97.0759 79.5105L96.1356 76.001Z" fill="url(#paint4_radial_1986_22905)"/>
<path d="M96.1356 76.001C95.5255 73.724 96.0128 71.3241 97.0814 69.2228C98.9478 65.5529 100 61.3993 100 57C100 42.0883 87.9117 30 73 30C58.0883 30 46 42.0883 46 57C46 71.9117 58.0883 84 73 84C76.8784 84 80.5657 83.1823 83.8991 81.7099C85.8874 80.8316 88.102 80.4603 90.2016 81.0229L94.4305 82.156C96.0366 82.5863 97.5063 81.1166 97.0759 79.5105L96.1356 76.001Z" fill="url(#paint5_radial_1986_22905)"/>
<circle cx="58.4198" cy="57.54" r="2.16" fill="url(#paint6_radial_1986_22905)"/>
<circle cx="71.3807" cy="57.5399" r="2.16" fill="url(#paint7_radial_1986_22905)"/>
<circle cx="84.3397" cy="57.5399" r="2.16" fill="url(#paint8_radial_1986_22905)"/>
<defs>
<filter id="filter0_f_1986_22905" x="6" y="1" width="131" height="131" filterUnits="userSpaceOnUse" color-interpolation-filters="sRGB">
<feFlood flood-opacity="0" result="BackgroundImageFix"/>
<feBlend mode="normal" in="SourceGraphic" in2="BackgroundImageFix" result="shape"/>
<feGaussianBlur stdDeviation="24" result="effect1_foregroundBlur_1986_22905"/>
</filter>
<linearGradient id="paint0_linear_1986_22905" x1="87" y1="1.51157e-06" x2="5" y2="100" gradientUnits="userSpaceOnUse">
<stop stop-color="#FFD585"/>
<stop offset="1" stop-color="#D77A25"/>
</linearGradient>
<linearGradient id="paint1_linear_1986_22905" x1="50" y1="0" x2="50" y2="100" gradientUnits="userSpaceOnUse">
<stop stop-color="#F2BD56"/>
<stop offset="0.265625" stop-color="#F2F1E2"/>
<stop offset="0.390625" stop-color="#FFF5E2"/>
<stop offset="0.583333" stop-color="#E6AF6E"/>
<stop offset="1" stop-color="#D76525"/>
</linearGradient>
<linearGradient id="paint2_linear_1986_22905" x1="88.3" y1="1.51157e-06" x2="5.04102" y2="91.3818" gradientUnits="userSpaceOnUse">
<stop stop-color="#FFD585"/>
<stop offset="1" stop-color="#D77A25"/>
</linearGradient>
<linearGradient id="paint3_linear_1986_22905" x1="10" y1="26" x2="100" y2="59" gradientUnits="userSpaceOnUse">
<stop stop-color="white"/>
<stop offset="0.322917" stop-color="white" stop-opacity="0"/>
</linearGradient>
<radialGradient id="paint4_radial_1986_22905" cx="0" cy="0" r="1" gradientUnits="userSpaceOnUse" gradientTransform="translate(60.85 39.45) rotate(54.3602) scale(52.8242)">
<stop stop-color="white"/>
<stop offset="1" stop-color="#D9D2D2"/>
</radialGradient>
<radialGradient id="paint5_radial_1986_22905" cx="0" cy="0" r="1" gradientUnits="userSpaceOnUse" gradientTransform="translate(67.33 48.09) rotate(67.0831) scale(36.0559)">
<stop offset="0.725147" stop-color="white" stop-opacity="0"/>
<stop offset="1" stop-color="white"/>
</radialGradient>
<radialGradient id="paint6_radial_1986_22905" cx="0" cy="0" r="1" gradientUnits="userSpaceOnUse" gradientTransform="translate(59.8178 55.7514) rotate(122.794) scale(4.44145 4.04439)">
<stop stop-color="white"/>
<stop offset="1" stop-color="#FFFBF4"/>
</radialGradient>
<radialGradient id="paint7_radial_1986_22905" cx="0" cy="0" r="1" gradientUnits="userSpaceOnUse" gradientTransform="translate(72.7787 55.7513) rotate(122.794) scale(4.44145 4.04439)">
<stop stop-color="white"/>
<stop offset="1" stop-color="#FFFBF4"/>
</radialGradient>
<radialGradient id="paint8_radial_1986_22905" cx="0" cy="0" r="1" gradientUnits="userSpaceOnUse" gradientTransform="translate(85.7377 55.7513) rotate(122.794) scale(4.44145 4.04439)">
<stop stop-color="white"/>
<stop offset="1" stop-color="#FFFBF4"/>
</radialGradient>
</defs>
</svg>
