<svg width="21" height="22" viewBox="0 0 21 22" fill="none" xmlns="http://www.w3.org/2000/svg">
<g clip-path="url(#clip0_2326_6933)">
<path d="M14.25 4.50537C15.9726 5.49993 17.2296 7.13807 17.7445 9.05942C18.2593 10.9808 17.9898 13.0279 16.9952 14.7506C16.0006 16.4732 14.3625 17.7302 12.4412 18.245C10.5198 18.7598 8.47264 18.4903 6.75001 17.4958C5.02738 16.5012 3.77039 14.863 3.25557 12.9417C2.74075 11.0204 3.01026 8.97319 4.00482 7.25056C4.99938 5.52793 6.63752 4.27094 8.55887 3.75612C10.4802 3.24129 12.5274 3.51081 14.25 4.50537V4.50537ZM7.89274 8.95399C7.78508 8.89183 7.65713 8.87498 7.53705 8.90716C7.41696 8.93933 7.31458 9.0179 7.25242 9.12556C7.19026 9.23323 7.17341 9.36117 7.20559 9.48126C7.23776 9.60134 7.31633 9.70373 7.42399 9.76589L12.1273 12.4814L9.37824 13.2173C9.3187 13.2332 9.26289 13.2608 9.21399 13.2983C9.1651 13.3358 9.12407 13.3826 9.09325 13.436C9.06243 13.4893 9.04243 13.5483 9.03438 13.6094C9.02634 13.6705 9.03041 13.7326 9.04636 13.7921C9.06231 13.8516 9.08984 13.9075 9.12736 13.9563C9.16488 14.0052 9.21166 14.0463 9.26504 14.0771C9.31842 14.1079 9.37734 14.1279 9.43845 14.136C9.49956 14.144 9.56165 14.1399 9.62119 14.124L13.4631 13.0945C13.5227 13.0787 13.5786 13.0512 13.6275 13.0137C13.6764 12.9762 13.7175 12.9294 13.7483 12.876C13.7792 12.8226 13.7992 12.7636 13.8072 12.7025C13.8152 12.6414 13.811 12.5792 13.795 12.5197L12.7656 8.67777C12.7496 8.61823 12.7221 8.56242 12.6846 8.51352C12.647 8.46462 12.6003 8.42359 12.5469 8.39278C12.4935 8.36196 12.4346 8.34196 12.3735 8.33391C12.3124 8.32587 12.2503 8.32994 12.1907 8.34589C12.1312 8.36184 12.0754 8.38936 12.0265 8.42689C11.9776 8.46441 11.9366 8.51119 11.9057 8.56457C11.8749 8.61795 11.8549 8.67687 11.8469 8.73798C11.8388 8.79909 11.8429 8.86118 11.8589 8.92071L12.5961 11.6695L7.89274 8.95399Z" fill="black"/>
</g>
<defs>
<clipPath id="clip0_2326_6933">
<rect width="15" height="15" fill="white" transform="translate(7.75482 0.755371) rotate(30)"/>
</clipPath>
</defs>
</svg>
