<svg width="20" height="20" viewBox="0 0 20 20" fill="none" xmlns="http://www.w3.org/2000/svg">
<path fill-rule="evenodd" clip-rule="evenodd" d="M18.7499 9.99981C18.7499 9.83405 18.684 9.67508 18.5668 9.55787C18.4496 9.44066 18.2907 9.37481 18.1249 9.37481H3.38365L7.3174 5.44231C7.37551 5.3842 7.4216 5.31522 7.45305 5.23929C7.4845 5.16337 7.50069 5.08199 7.50069 4.99981C7.50069 4.91763 7.4845 4.83626 7.45305 4.76033C7.4216 4.68441 7.37551 4.61542 7.3174 4.55731C7.25929 4.4992 7.1903 4.45311 7.11438 4.42166C7.03845 4.39021 6.95708 4.37402 6.8749 4.37402C6.79272 4.37402 6.71134 4.39021 6.63542 4.42166C6.55949 4.45311 6.49051 4.4992 6.4324 4.55731L1.4324 9.55731C1.37419 9.61537 1.32801 9.68434 1.29651 9.76027C1.265 9.8362 1.24878 9.9176 1.24878 9.99981C1.24878 10.082 1.265 10.1634 1.29651 10.2394C1.32801 10.3153 1.37419 10.3843 1.4324 10.4423L6.4324 15.4423C6.49051 15.5004 6.55949 15.5465 6.63542 15.578C6.71134 15.6094 6.79272 15.6256 6.8749 15.6256C6.95708 15.6256 7.03845 15.6094 7.11438 15.578C7.1903 15.5465 7.25929 15.5004 7.3174 15.4423C7.37551 15.3842 7.4216 15.3152 7.45305 15.2393C7.4845 15.1634 7.50069 15.082 7.50069 14.9998C7.50069 14.9176 7.4845 14.8363 7.45305 14.7603C7.4216 14.6844 7.37551 14.6154 7.3174 14.5573L3.38365 10.6248H18.1249C18.2907 10.6248 18.4496 10.559 18.5668 10.4418C18.684 10.3245 18.7499 10.1656 18.7499 9.99981Z" fill="black"/>
</svg>
