<svg width="17" height="12" viewBox="0 0 17 12" fill="none" xmlns="http://www.w3.org/2000/svg">
<path d="M16.3284 4.17206C16.9755 3.52502 16.9755 2.47596 16.3284 1.82892L15 0.500487C14.4465 -0.05305 13.5 0.338989 13.5 1.12181C13.5 1.60709 13.1066 2.00049 12.6213 2.00049H7.5C6.94772 2.00049 6.5 2.4482 6.5 3.00049C6.5 3.55277 6.94772 4.00049 7.5 4.00049H12.6213C13.1066 4.00049 13.5 4.39389 13.5 4.87917C13.5 5.66199 14.4465 6.05403 15 5.50049L16.3284 4.17206ZM3.5 7.12181C3.5 6.33899 2.55354 5.94695 2 6.50049L0.671572 7.82892C0.0245301 8.47596 0.0245312 9.52502 0.671573 10.1721L2 11.5005C2.55354 12.054 3.5 11.662 3.5 10.8792C3.5 10.3939 3.8934 10.0005 4.37868 10.0005H9.5C10.0523 10.0005 10.5 9.55277 10.5 9.00049C10.5 8.4482 10.0523 8.00049 9.5 8.00049H4.37868C3.8934 8.00049 3.5 7.60709 3.5 7.12181Z" fill="black"/>
</svg>
