<svg width="78" height="32" viewBox="0 0 78 32" fill="none" xmlns="http://www.w3.org/2000/svg">
<path d="M0 5.00049C0 2.23906 2.23858 0.000488281 5 0.000488281H73C75.7614 0.000488281 78 2.23906 78 5.00049V27.0005C78 29.7619 75.7614 32.0005 73 32.0005H5C2.23858 32.0005 0 29.7619 0 27.0005V5.00049Z" fill="#00B548"/>
<path d="M16.358 14.3365C16.358 14.9058 16.2273 15.4285 15.966 15.9045C15.7047 16.3712 15.3033 16.7492 14.762 17.0385C14.2207 17.3278 13.5487 17.4725 12.746 17.4725H11.262V21.0005H8.868V11.1725H12.746C13.53 11.1725 14.1927 11.3078 14.734 11.5785C15.2753 11.8492 15.6813 12.2225 15.952 12.6985C16.2227 13.1745 16.358 13.7205 16.358 14.3365ZM12.564 15.5685C13.0213 15.5685 13.362 15.4612 13.586 15.2465C13.81 15.0318 13.922 14.7285 13.922 14.3365C13.922 13.9445 13.81 13.6412 13.586 13.4265C13.362 13.2118 13.0213 13.1045 12.564 13.1045H11.262V15.5685H12.564ZM17.1283 17.0805C17.1283 16.2778 17.2777 15.5732 17.5763 14.9665C17.8843 14.3598 18.2997 13.8932 18.8223 13.5665C19.345 13.2398 19.9283 13.0765 20.5723 13.0765C21.123 13.0765 21.6037 13.1885 22.0143 13.4125C22.4343 13.6365 22.7563 13.9305 22.9803 14.2945V13.1885H25.3743V21.0005H22.9803V19.8945C22.747 20.2585 22.4203 20.5525 22.0003 20.7765C21.5897 21.0005 21.109 21.1125 20.5583 21.1125C19.9237 21.1125 19.345 20.9492 18.8223 20.6225C18.2997 20.2865 17.8843 19.8152 17.5763 19.2085C17.2777 18.5925 17.1283 17.8832 17.1283 17.0805ZM22.9803 17.0945C22.9803 16.4972 22.8123 16.0258 22.4763 15.6805C22.1497 15.3352 21.7483 15.1625 21.2723 15.1625C20.7963 15.1625 20.3903 15.3352 20.0543 15.6805C19.7277 16.0165 19.5643 16.4832 19.5643 17.0805C19.5643 17.6778 19.7277 18.1538 20.0543 18.5085C20.3903 18.8538 20.7963 19.0265 21.2723 19.0265C21.7483 19.0265 22.1497 18.8538 22.4763 18.5085C22.8123 18.1632 22.9803 17.6918 22.9803 17.0945ZM35.0863 13.1885L30.1863 24.7105H27.6103L29.4023 20.7345L26.2243 13.1885H28.8983L30.7043 18.0745L32.4963 13.1885H35.0863ZM47.7108 21.0005H45.3168L41.3128 14.9385V21.0005H38.9188V11.1725H41.3128L45.3168 17.2625V11.1725H47.7108V21.0005ZM53.0021 21.1125C52.2368 21.1125 51.5461 20.9492 50.9301 20.6225C50.3235 20.2958 49.8428 19.8292 49.4881 19.2225C49.1428 18.6158 48.9701 17.9065 48.9701 17.0945C48.9701 16.2918 49.1475 15.5872 49.5021 14.9805C49.8568 14.3645 50.3421 13.8932 50.9581 13.5665C51.5741 13.2398 52.2648 13.0765 53.0301 13.0765C53.7955 13.0765 54.4861 13.2398 55.1021 13.5665C55.7181 13.8932 56.2035 14.3645 56.5581 14.9805C56.9128 15.5872 57.0901 16.2918 57.0901 17.0945C57.0901 17.8972 56.9081 18.6065 56.5441 19.2225C56.1895 19.8292 55.6995 20.2958 55.0741 20.6225C54.4581 20.9492 53.7675 21.1125 53.0021 21.1125ZM53.0021 19.0405C53.4595 19.0405 53.8468 18.8725 54.1641 18.5365C54.4908 18.2005 54.6541 17.7198 54.6541 17.0945C54.6541 16.4692 54.4955 15.9885 54.1781 15.6525C53.8701 15.3165 53.4875 15.1485 53.0301 15.1485C52.5635 15.1485 52.1761 15.3165 51.8681 15.6525C51.5601 15.9792 51.4061 16.4598 51.4061 17.0945C51.4061 17.7198 51.5555 18.2005 51.8541 18.5365C52.1621 18.8725 52.5448 19.0405 53.0021 19.0405ZM69.5742 13.1885L67.4602 21.0005H64.8142L63.5822 15.9325L62.3082 21.0005H59.6762L57.5482 13.1885H59.9422L61.0482 18.7745L62.3642 13.1885H64.8982L66.2282 18.7465L67.3202 13.1885H69.5742Z" fill="white"/>
</svg>
