<svg width="20" height="21" viewBox="0 0 20 21" fill="none" xmlns="http://www.w3.org/2000/svg">
<g clip-path="url(#clip0_1984_21426)">
<path fill-rule="evenodd" clip-rule="evenodd" d="M18.4537 0.204931C18.5443 0.260924 18.619 0.339113 18.6709 0.432085C18.7227 0.525057 18.7499 0.629731 18.75 0.736181V19.4862C18.75 19.6519 18.6842 19.8109 18.5669 19.9281C18.4497 20.0453 18.2908 20.1112 18.125 20.1112H14.375C14.2092 20.1112 14.0503 20.0453 13.9331 19.9281C13.8158 19.8109 13.75 19.6519 13.75 19.4862V17.6112H12.5V19.4862C12.5 19.6519 12.4342 19.8109 12.3169 19.9281C12.1997 20.0453 12.0408 20.1112 11.875 20.1112H0.625C0.45924 20.1112 0.300269 20.0453 0.183058 19.9281C0.065848 19.8109 0 19.6519 0 19.4862V12.6112C9.95584e-05 12.4801 0.0414351 12.3523 0.118156 12.246C0.194877 12.1396 0.303098 12.0601 0.4275 12.0187L7.5 9.66118V5.73618C7.5 5.62021 7.53228 5.50652 7.5932 5.40784C7.65413 5.30917 7.74132 5.22939 7.845 5.17743L17.845 0.177431C17.9404 0.129688 18.0464 0.107151 18.153 0.111965C18.2595 0.116779 18.3631 0.148783 18.4537 0.204931ZM7.5 10.9787L1.25 13.0612V18.8612H7.5V10.9787ZM8.75 18.8612H11.25V16.9862C11.25 16.8204 11.3158 16.6614 11.4331 16.5442C11.5503 16.427 11.7092 16.3612 11.875 16.3612H14.375C14.5408 16.3612 14.6997 16.427 14.8169 16.5442C14.9342 16.6614 15 16.8204 15 16.9862V18.8612H17.5V1.74743L8.75 6.12243V18.8612Z" fill="white"/>
<path d="M2.5 13.8611H3.75V15.1111H2.5V13.8611ZM5 13.8611H6.25V15.1111H5V13.8611ZM2.5 16.3611H3.75V17.6111H2.5V16.3611ZM5 16.3611H6.25V17.6111H5V16.3611ZM10 11.3611H11.25V12.6111H10V11.3611ZM12.5 11.3611H13.75V12.6111H12.5V11.3611ZM10 13.8611H11.25V15.1111H10V13.8611ZM12.5 13.8611H13.75V15.1111H12.5V13.8611ZM15 11.3611H16.25V12.6111H15V11.3611ZM15 13.8611H16.25V15.1111H15V13.8611ZM10 8.86108H11.25V10.1111H10V8.86108ZM12.5 8.86108H13.75V10.1111H12.5V8.86108ZM15 8.86108H16.25V10.1111H15V8.86108ZM10 6.36108H11.25V7.61108H10V6.36108ZM12.5 6.36108H13.75V7.61108H12.5V6.36108ZM15 6.36108H16.25V7.61108H15V6.36108ZM15 3.86108H16.25V5.11108H15V3.86108Z" fill="white"/>
</g>
<defs>
<clipPath id="clip0_1984_21426">
<rect width="20" height="20" fill="white" transform="translate(0 0.111084)"/>
</clipPath>
</defs>
</svg>
