<svg width="20" height="21" viewBox="0 0 20 21" fill="none" xmlns="http://www.w3.org/2000/svg">
<g clip-path="url(#clip0_1984_21418)">
<path d="M10.6438 1.38483C10.4295 1.36902 10.2148 1.3611 10 1.36108V0.111084C10.2457 0.111204 10.4913 0.120377 10.7362 0.138584L10.6438 1.38483ZM13.1487 1.94733C12.7481 1.79271 12.3365 1.66779 11.9175 1.57358L12.1913 0.353584C12.67 0.461084 13.1412 0.603584 13.5987 0.781084L13.1487 1.94733ZM14.8612 2.83483C14.6825 2.71565 14.4995 2.60307 14.3125 2.49733L14.9287 1.40983C15.3561 1.652 15.7651 1.92524 16.1525 2.22733L15.3837 3.21358C15.2143 3.08137 15.04 2.95545 14.8612 2.83608V2.83483ZM17.1537 5.07233C16.9065 4.72105 16.6337 4.38848 16.3375 4.07733L17.2425 3.21483C17.58 3.57108 17.8925 3.95233 18.1762 4.35233L17.1537 5.07233ZM18.0837 6.76233C18.0017 6.56416 17.9125 6.36903 17.8162 6.17733L18.9325 5.61483C19.1532 6.05369 19.3413 6.50826 19.495 6.97483L18.3075 7.36608C18.2403 7.16217 18.1657 6.96078 18.0837 6.76233ZM18.7462 9.89608C18.7361 9.46651 18.6944 9.03826 18.6212 8.61483L19.8525 8.40233C19.9362 8.88483 19.985 9.37483 19.9975 9.86483L18.7475 9.89608H18.7462ZM18.5825 11.8186C18.6237 11.6061 18.6575 11.3948 18.6837 11.1811L19.925 11.3348C19.865 11.8225 19.7689 12.3051 19.6375 12.7786L18.4325 12.4448C18.49 12.2386 18.54 12.0298 18.5825 11.8186ZM17.3925 14.7923C17.6225 14.4298 17.825 14.0498 18 13.6573L19.1425 14.1636C18.9425 14.6136 18.7112 15.0461 18.4487 15.4611L17.3925 14.7923ZM16.1875 16.2986C16.34 16.1461 16.4862 15.9886 16.625 15.8261L17.5725 16.6423C17.412 16.8284 17.2448 17.0085 17.0712 17.1823L16.1875 16.2986Z" fill="white"/>
<path d="M10 1.36108C8.5611 1.36119 7.14443 1.71614 5.87547 2.39451C4.60651 3.07287 3.52443 4.05371 2.72507 5.25015C1.92571 6.44658 1.43374 7.82168 1.29274 9.25366C1.15174 10.6856 1.36606 12.1303 1.91672 13.4596C2.46738 14.789 3.33737 15.9621 4.44965 16.8749C5.56193 17.7877 6.88217 18.4122 8.29341 18.6929C9.70466 18.9737 11.1634 18.902 12.5403 18.4844C13.9173 18.0668 15.17 17.316 16.1875 16.2986L17.0712 17.1823C15.9084 18.3458 14.4766 19.2045 12.9025 19.6823C11.3285 20.1602 9.66096 20.2424 8.04758 19.9217C6.43419 19.601 4.92482 18.8873 3.65318 17.8439C2.38155 16.8004 1.38692 15.4594 0.757416 13.9397C0.127915 12.42 -0.117019 10.7684 0.0443161 9.13142C0.205651 7.49441 0.768273 5.92246 1.68233 4.55486C2.59639 3.18725 3.83367 2.06622 5.28453 1.29109C6.73539 0.515953 8.35505 0.110648 10 0.111084V1.36108Z" fill="white"/>
<path d="M9.375 3.86108C9.54076 3.86108 9.69973 3.92693 9.81694 4.04414C9.93415 4.16135 10 4.32032 10 4.48608V10.9986L14.06 13.3186C14.1997 13.4029 14.301 13.5385 14.342 13.6964C14.3831 13.8544 14.3608 14.0221 14.2798 14.1638C14.1988 14.3055 14.0657 14.4099 13.9087 14.4547C13.7518 14.4995 13.5836 14.4812 13.44 14.4036L9.065 11.9036C8.96934 11.8489 8.88982 11.77 8.83451 11.6747C8.77919 11.5794 8.75004 11.4712 8.75 11.3611V4.48608C8.75 4.32032 8.81585 4.16135 8.93306 4.04414C9.05027 3.92693 9.20924 3.86108 9.375 3.86108Z" fill="white"/>
</g>
<defs>
<clipPath id="clip0_1984_21418">
<rect width="20" height="20" fill="white" transform="translate(0 0.111084)"/>
</clipPath>
</defs>
</svg>
