<svg width="20" height="21" viewBox="0 0 20 21" fill="none" xmlns="http://www.w3.org/2000/svg">
<path fill-rule="evenodd" clip-rule="evenodd" d="M6.25 14.4861C6.25 14.3203 6.31585 14.1614 6.43306 14.0441C6.55027 13.9269 6.70924 13.8611 6.875 13.8611H18.125C18.2908 13.8611 18.4497 13.9269 18.5669 14.0441C18.6842 14.1614 18.75 14.3203 18.75 14.4861C18.75 14.6518 18.6842 14.8108 18.5669 14.928C18.4497 15.0452 18.2908 15.1111 18.125 15.1111H6.875C6.70924 15.1111 6.55027 15.0452 6.43306 14.928C6.31585 14.8108 6.25 14.6518 6.25 14.4861ZM6.25 9.48608C6.25 9.32032 6.31585 9.16135 6.43306 9.04414C6.55027 8.92693 6.70924 8.86108 6.875 8.86108H18.125C18.2908 8.86108 18.4497 8.92693 18.5669 9.04414C18.6842 9.16135 18.75 9.32032 18.75 9.48608C18.75 9.65184 18.6842 9.81082 18.5669 9.92803C18.4497 10.0452 18.2908 10.1111 18.125 10.1111H6.875C6.70924 10.1111 6.55027 10.0452 6.43306 9.92803C6.31585 9.81082 6.25 9.65184 6.25 9.48608ZM6.25 4.48608C6.25 4.32032 6.31585 4.16135 6.43306 4.04414C6.55027 3.92693 6.70924 3.86108 6.875 3.86108H18.125C18.2908 3.86108 18.4497 3.92693 18.5669 4.04414C18.6842 4.16135 18.75 4.32032 18.75 4.48608C18.75 4.65184 18.6842 4.81082 18.5669 4.92803C18.4497 5.04524 18.2908 5.11108 18.125 5.11108H6.875C6.70924 5.11108 6.55027 5.04524 6.43306 4.92803C6.31585 4.81082 6.25 4.65184 6.25 4.48608Z" fill="white"/>
<path d="M2.80264 2.85348C2.82391 2.78455 2.8667 2.72425 2.92474 2.68142C2.98278 2.63859 3.05301 2.61548 3.12514 2.61548C3.19728 2.61548 3.26751 2.63859 3.32555 2.68142C3.38359 2.72425 3.42638 2.78455 3.44764 2.85348L3.65015 3.51598C3.6939 3.65973 3.82514 3.75848 3.97265 3.75848H4.6614C4.98515 3.75848 5.1239 4.17473 4.8664 4.37473L4.2814 4.82848C4.22611 4.87171 4.18528 4.93073 4.16429 4.9977C4.14331 5.06467 4.14317 5.13643 4.1639 5.20348L4.38015 5.91473C4.47765 6.23473 4.1139 6.49223 3.8514 6.28973L3.33014 5.88473C3.27154 5.83912 3.19941 5.81435 3.12514 5.81435C3.05088 5.81435 2.97875 5.83912 2.92014 5.88473L2.39889 6.28848C2.13639 6.49223 1.77389 6.23473 1.87014 5.91473L2.08639 5.20223C2.10684 5.13535 2.10656 5.06385 2.08559 4.99714C2.06462 4.93042 2.02393 4.87162 1.96889 4.82848L1.38389 4.37473C1.12639 4.17473 1.26514 3.75848 1.58889 3.75848H2.27639C2.34926 3.75826 2.42012 3.73454 2.47844 3.69086C2.53676 3.64717 2.57944 3.58585 2.60014 3.51598L2.80264 2.85348V2.85348ZM2.80264 7.85348C2.82391 7.78455 2.8667 7.72425 2.92474 7.68142C2.98278 7.63859 3.05301 7.61548 3.12514 7.61548C3.19728 7.61548 3.26751 7.63859 3.32555 7.68142C3.38359 7.72425 3.42638 7.78455 3.44764 7.85348L3.65015 8.51598C3.6939 8.65973 3.82514 8.75848 3.97265 8.75848H4.6614C4.98515 8.75848 5.1239 9.17473 4.8664 9.37473L4.2814 9.82848C4.22611 9.87172 4.18528 9.93073 4.16429 9.9977C4.14331 10.0647 4.14317 10.1364 4.1639 10.2035L4.38015 10.9147C4.47765 11.2335 4.1139 11.4922 3.8514 11.2897L3.33014 10.8847C3.27154 10.8391 3.19941 10.8144 3.12514 10.8144C3.05088 10.8144 2.97875 10.8391 2.92014 10.8847L2.39889 11.2885C2.13639 11.4922 1.77389 11.2347 1.87014 10.9147L2.08639 10.2022C2.10684 10.1354 2.10656 10.0639 2.08559 9.99714C2.06462 9.93043 2.02393 9.87163 1.96889 9.82848L1.38389 9.37473C1.12639 9.17473 1.26514 8.75848 1.58889 8.75848H2.27639C2.34926 8.75826 2.42012 8.73454 2.47844 8.69086C2.53676 8.64717 2.57944 8.58585 2.60014 8.51598L2.80264 7.85348V7.85348ZM2.80264 12.8535C2.82391 12.7846 2.8667 12.7243 2.92474 12.6814C2.98278 12.6386 3.05301 12.6155 3.12514 12.6155C3.19728 12.6155 3.26751 12.6386 3.32555 12.6814C3.38359 12.7243 3.42638 12.7846 3.44764 12.8535L3.65015 13.516C3.6939 13.6597 3.82514 13.7585 3.97265 13.7585H4.6614C4.98515 13.7585 5.1239 14.1747 4.8664 14.3747L4.2814 14.8285C4.22611 14.8717 4.18528 14.9307 4.16429 14.9977C4.14331 15.0647 4.14317 15.1364 4.1639 15.2035L4.38015 15.9147C4.47765 16.2335 4.1139 16.4922 3.8514 16.2897L3.33014 15.8847C3.27154 15.8391 3.19941 15.8144 3.12514 15.8144C3.05088 15.8144 2.97875 15.8391 2.92014 15.8847L2.39889 16.2885C2.13639 16.4922 1.77389 16.2347 1.87014 15.9147L2.08639 15.2022C2.10684 15.1354 2.10656 15.0639 2.08559 14.9971C2.06462 14.9304 2.02393 14.8716 1.96889 14.8285L1.38389 14.3747C1.12639 14.1747 1.26514 13.7585 1.58889 13.7585H2.27639C2.34926 13.7583 2.42012 13.7345 2.47844 13.6909C2.53676 13.6472 2.57944 13.5858 2.60014 13.516L2.80264 12.8535V12.8535Z" fill="white"/>
</svg>
