<svg width="34" height="37" viewBox="0 0 34 37" fill="none" xmlns="http://www.w3.org/2000/svg">
<path d="M33.5002 23.6416L31.2446 22.1768V23.8497L33.5002 24.4689V23.6416Z" fill="#B63546"/>
<path d="M0.5 23.6416L2.75578 22.1768V23.8497L0.5 24.4689V23.6416Z" fill="#B63546"/>
<path d="M2.75586 9.5V27.5L17.0002 36.5L31.2445 27.5V9.5L17.0002 0.5L2.75586 9.5Z" fill="#F79E1B"/>
<path d="M11.8285 15.3927L17.0002 4.3817V0.5L2.75586 9.5L11.8285 15.3927Z" fill="url(#paint0_diamond_1964_15582)"/>
<path d="M23.7388 22.1768L17 32.6184V36.5001L31.2443 27.5001L28.1724 25.5591L23.7388 22.1768Z" fill="#911F2E"/>
<path d="M16.7539 28.0085L5.82763 25.5591L2.75586 27.5L17.0002 36.5V32.6183L16.7539 28.0085Z" fill="#E2445C"/>
<path d="M17.2434 9.1553L28.1724 11.4409L31.2443 9.5L17 0.5V4.3817L17.2434 9.1553Z" fill="#E44258"/>
<path d="M12.3209 21.7006L6.2888 11.7579L2.75586 9.5V27.5L5.82763 25.5591L12.3209 21.7006Z" fill="url(#paint1_diamond_1964_15582)"/>
<path d="M21.6792 21.7006L27.7113 11.7579L31.2444 9.5V27.5L28.1725 25.5591L21.6792 21.7006Z" fill="#911F2E"/>
<path d="M5.82764 11.4408V25.559L17.0002 32.6182L28.1725 25.559V11.4408L17.0002 4.38159L5.82764 11.4408Z" fill="#F5F6F8"/>
<path d="M11.1858 28.4938H1.91895C1.13529 28.4938 0.5 27.8679 0.5 27.0959V23.5398H9.65192C10.499 23.5398 11.1858 24.2162 11.1858 25.0509V28.4938Z" fill="url(#paint2_linear_1964_15582)"/>
<path d="M32.0808 28.8033H22.814V25.3605C22.814 24.526 23.5006 23.8494 24.3478 23.8494H33.4998V27.4054C33.4998 28.1775 32.8645 28.8033 32.0808 28.8033Z" fill="url(#paint3_linear_1964_15582)"/>
<path d="M25.6576 31.2803H8.34283C7.91692 31.2803 7.57178 30.9401 7.57178 30.5207V25.2284C7.57178 24.8088 7.91711 24.4688 8.34283 24.4688H25.6578C26.0837 24.4688 26.4289 24.809 26.4289 25.2284V30.5207C26.4289 30.9403 26.0835 31.2803 25.6576 31.2803Z" fill="url(#paint4_linear_1964_15582)"/>
<path d="M17.0003 32.8286C19.7775 32.8286 22.0289 30.6106 22.0289 27.8746C22.0289 25.1386 19.7775 22.9207 17.0003 22.9207C14.2231 22.9207 11.9717 25.1386 11.9717 27.8746C11.9717 30.6106 14.2231 32.8286 17.0003 32.8286Z" fill="#EEEEEE"/>
<path d="M17.0002 31.8905C19.2515 31.8905 21.0765 30.0926 21.0765 27.8747C21.0765 25.6568 19.2515 23.8589 17.0002 23.8589C14.7489 23.8589 12.9238 25.6568 12.9238 27.8747C12.9238 30.0926 14.7489 31.8905 17.0002 31.8905Z" fill="#FF7575"/>
<path d="M17.0003 24.875L17.9895 26.8498L20.2018 27.1664L18.6011 28.7036L18.9789 30.874L17.0003 29.8493L15.0215 30.874L15.3996 28.7036L13.7988 27.1664L16.0109 26.8498L17.0003 24.875Z" fill="#911F2E"/>
<path d="M17.0003 24.875L17.129 27.811L17.9895 26.8498L19.0957 27.008L20.2018 27.1664L17.129 27.811L18.6011 28.7036L18.79 29.7888L18.9789 30.874L17.129 27.811L17.0003 29.8493L16.0109 30.3618L15.0215 30.874L17.129 27.811L15.3996 28.7036L14.5991 27.935L13.7988 27.1664L17.129 27.811L16.0109 26.8498L16.5055 25.8623L17.0003 24.875Z" fill="#B63546"/>
<path d="M8.90115 11.4896L9.17065 10.4274C9.20518 10.2912 9.27681 10.1666 9.37767 10.0672C9.47852 9.96788 9.60496 9.89732 9.74328 9.8633L10.8215 9.5978C10.8505 9.5906 10.8505 9.54992 10.8215 9.5429L9.74328 9.2774C9.60496 9.24338 9.47852 9.17282 9.37767 9.07346C9.27681 8.9741 9.20518 8.84954 9.17065 8.71328L8.90115 7.6511C8.89384 7.62248 8.85255 7.62248 8.84542 7.6511L8.57592 8.71328C8.54139 8.84954 8.46977 8.9741 8.36891 9.07346C8.26805 9.17282 8.14161 9.24338 8.0033 9.2774L6.92511 9.5429C6.89606 9.5501 6.89606 9.59078 6.92511 9.5978L8.0033 9.8633C8.14161 9.89732 8.26805 9.96788 8.36891 10.0672C8.46977 10.1666 8.54139 10.2912 8.57592 10.4274L8.84542 11.4896C8.85273 11.5182 8.89402 11.5182 8.90115 11.4896Z" fill="white"/>
<path d="M28.103 23.1402L28.305 22.3435C28.331 22.2412 28.3847 22.1478 28.4604 22.0733C28.536 21.9988 28.6308 21.9459 28.7346 21.9203L29.5433 21.721C29.565 21.7156 29.565 21.6852 29.5433 21.6798L28.7346 21.4806C28.6308 21.455 28.536 21.4021 28.4604 21.3276C28.3847 21.253 28.331 21.1596 28.305 21.0574L28.103 20.2607C28.0975 20.2393 28.0666 20.2393 28.0611 20.2607L27.859 21.0574C27.8331 21.1596 27.7794 21.253 27.7037 21.3276C27.6281 21.4021 27.5333 21.455 27.4295 21.4806L26.6208 21.6798C26.5991 21.6852 26.5991 21.7156 26.6208 21.721L27.4295 21.9203C27.5333 21.9459 27.6281 21.9988 27.7037 22.0733C27.7794 22.1478 27.8331 22.2412 27.859 22.3435L28.0611 23.1402C28.0666 23.1616 28.0975 23.1616 28.103 23.1402Z" fill="white"/>
<path d="M13.6592 19.5336C16.1104 17.3396 17.758 15.5865 17.758 14.1834C17.758 13.3005 17.2579 12.8205 16.4797 12.8205C15.8079 12.8205 15.2798 13.2615 14.8194 13.7552L13.54 12.5085C14.5028 11.5083 15.399 11.0156 16.7964 11.0156C18.6938 11.0156 20.0119 12.2105 20.0119 14.0544C20.0119 15.7165 18.5619 17.5467 17.0593 19.0407C17.5477 18.9752 18.2195 18.9106 18.6542 18.9106H20.4605V20.8582H13.6592V19.5336Z" fill="black"/>
<defs>
<radialGradient id="paint0_diamond_1964_15582" cx="0" cy="0" r="1" gradientUnits="userSpaceOnUse" gradientTransform="translate(10.2959 8.16959) rotate(65.5615) scale(7.29919 6.35783)">
<stop stop-color="#D35900"/>
<stop offset="1" stop-color="#6F1800"/>
</radialGradient>
<radialGradient id="paint1_diamond_1964_15582" cx="0" cy="0" r="1" gradientUnits="userSpaceOnUse" gradientTransform="translate(7.81895 18.7698) rotate(75.8306) scale(8.28377 4.54675)">
<stop stop-color="#D35900"/>
<stop offset="1" stop-color="#6F1800"/>
</radialGradient>
<linearGradient id="paint2_linear_1964_15582" x1="0.5" y1="26.0168" x2="11.1857" y2="26.0168" gradientUnits="userSpaceOnUse">
<stop stop-color="#BE4244"/>
<stop offset="1" stop-color="#D33730"/>
</linearGradient>
<linearGradient id="paint3_linear_1964_15582" x1="22.8141" y1="26.3264" x2="33.4998" y2="26.3264" gradientUnits="userSpaceOnUse">
<stop stop-color="#BE4244"/>
<stop offset="1" stop-color="#D33730"/>
</linearGradient>
<linearGradient id="paint4_linear_1964_15582" x1="13.5558" y1="24.9373" x2="14.0543" y2="31.5788" gradientUnits="userSpaceOnUse">
<stop stop-color="#F12323"/>
<stop offset="1" stop-color="#881827"/>
</linearGradient>
</defs>
</svg>
