<svg width="20" height="20" viewBox="0 0 20 20" fill="none" xmlns="http://www.w3.org/2000/svg">
<path d="M16.5493 3.51254L2.6153 16.0587C2.35891 16.2896 2.33822 16.685 2.56905 16.9414C2.79991 17.1978 3.19534 17.2185 3.4517 16.9876L17.3856 4.44145C17.642 4.21063 17.6628 3.8152 17.4319 3.5588C17.201 3.30241 16.8056 3.28172 16.5493 3.51254Z" fill="white"/>
<path d="M17.3847 15.8086L3.45078 3.26243C3.19439 3.03157 2.79896 3.05233 2.56813 3.30869C2.33731 3.56505 2.35803 3.96052 2.61439 4.19134L16.5483 16.7375C16.8047 16.9684 17.2002 16.9476 17.431 16.6913C17.6618 16.4349 17.6411 16.0395 17.3847 15.8086Z" fill="white"/>
<path d="M16.5483 3.5123L2.61436 16.0585C2.35796 16.2893 2.33727 16.6848 2.5681 16.9411C2.79896 17.1975 3.19439 17.2182 3.45075 16.9874L17.3847 4.44121C17.6411 4.21035 17.6618 3.81492 17.431 3.55856C17.2001 3.30213 16.8047 3.28144 16.5483 3.5123Z" fill="white"/>
</svg>
