<svg width="20" height="21" viewBox="0 0 20 21" fill="none" xmlns="http://www.w3.org/2000/svg">
<path d="M0.624984 4.87497H19.375C19.72 4.87497 19.9999 4.59495 19.9999 4.24998C19.9999 3.90497 19.7199 3.625 19.375 3.625H0.624984C0.280022 3.625 0 3.90497 0 4.24998C0 4.595 0.280022 4.87497 0.624984 4.87497Z" fill="white"/>
<path d="M19.375 9.875H0.624984C0.27997 9.875 0 10.155 0 10.5C0 10.8449 0.280022 11.125 0.624984 11.125H19.375C19.72 11.125 19.9999 10.8449 19.9999 10.5C19.9999 10.155 19.72 9.875 19.375 9.875Z" fill="white"/>
<path d="M19.375 16.125H0.624984C0.27997 16.125 0 16.405 0 16.75C0 17.095 0.280022 17.375 0.624984 17.375H19.375C19.72 17.375 19.9999 17.0949 19.9999 16.75C20 16.405 19.72 16.125 19.375 16.125Z" fill="white"/>
</svg>
