<svg width="67" height="24" viewBox="0 0 67 24" fill="none" xmlns="http://www.w3.org/2000/svg">
<path d="M10.01 11.8685L9.618 13.7025H11.298V15.8585H9.156L8.694 18.0005H6.454L6.916 15.8585H4.592L4.13 18.0005H1.89L2.352 15.8585H0.28V13.7025H2.814L3.206 11.8685H1.176V9.71249H3.654L4.102 7.64049H6.342L5.894 9.71249H8.218L8.666 7.64049H10.906L10.458 9.71249H12.194V11.8685H10.01ZM7.77 11.8685H5.446L5.054 13.7025H7.378L7.77 11.8685ZM13.3462 16.1805V14.2485L17.7702 7.92049H20.4442V14.1085H21.5922V16.1805H20.4442V18.0005H18.0502V16.1805H13.3462ZM18.2182 10.5525L15.8662 14.1085H18.2182V10.5525ZM22.8488 10.6645C22.8861 9.66582 23.2128 8.89582 23.8288 8.35449C24.4448 7.81315 25.2801 7.54249 26.3348 7.54249C27.0348 7.54249 27.6321 7.66382 28.1268 7.90649C28.6308 8.14915 29.0088 8.48049 29.2608 8.90049C29.5221 9.32049 29.6528 9.79182 29.6528 10.3145C29.6528 10.9305 29.4988 11.4345 29.1908 11.8265C28.8828 12.2092 28.5234 12.4705 28.1128 12.6105V12.6665C28.6448 12.8438 29.0648 13.1378 29.3728 13.5485C29.6808 13.9592 29.8348 14.4865 29.8348 15.1305C29.8348 15.7092 29.6994 16.2225 29.4288 16.6705C29.1674 17.1092 28.7801 17.4545 28.2668 17.7065C27.7628 17.9585 27.1608 18.0845 26.4608 18.0845C25.3408 18.0845 24.4448 17.8092 23.7728 17.2585C23.1101 16.7078 22.7601 15.8772 22.7228 14.7665H25.0468C25.0561 15.1772 25.1728 15.5038 25.3968 15.7465C25.6208 15.9798 25.9474 16.0965 26.3768 16.0965C26.7408 16.0965 27.0208 15.9938 27.2168 15.7885C27.4221 15.5738 27.5248 15.2938 27.5248 14.9485C27.5248 14.5005 27.3801 14.1785 27.0908 13.9825C26.8108 13.7772 26.3581 13.6745 25.7328 13.6745H25.2848V11.7285H25.7328C26.2088 11.7285 26.5914 11.6492 26.8808 11.4905C27.1794 11.3225 27.3288 11.0285 27.3288 10.6085C27.3288 10.2725 27.2354 10.0112 27.0488 9.82449C26.8621 9.63782 26.6054 9.54449 26.2788 9.54449C25.9241 9.54449 25.6581 9.65182 25.4808 9.86649C25.3128 10.0812 25.2148 10.3472 25.1868 10.6645H22.8488ZM31.1573 16.0825C31.4747 15.8305 31.6193 15.7138 31.5913 15.7325C32.506 14.9765 33.2247 14.3558 33.7473 13.8705C34.2793 13.3852 34.7273 12.8765 35.0913 12.3445C35.4553 11.8125 35.6373 11.2945 35.6373 10.7905C35.6373 10.4078 35.5487 10.1092 35.3713 9.89449C35.194 9.67982 34.928 9.57249 34.5733 9.57249C34.2187 9.57249 33.9387 9.70782 33.7333 9.97849C33.5373 10.2398 33.4393 10.6132 33.4393 11.0985H31.1293C31.148 10.3052 31.316 9.64249 31.6333 9.11049C31.96 8.57849 32.3847 8.18649 32.9073 7.93449C33.4393 7.68249 34.0273 7.55649 34.6713 7.55649C35.782 7.55649 36.6173 7.84115 37.1773 8.41049C37.7467 8.97982 38.0313 9.72182 38.0313 10.6365C38.0313 11.6352 37.6907 12.5638 37.0093 13.4225C36.328 14.2718 35.46 15.1025 34.4053 15.9145H38.1853V17.8605H31.1573V16.0825ZM38.9874 10.0065V7.78049H42.8654V18.0005H40.3734V10.0065H38.9874Z" fill="#323338"/>
<g clip-path="url(#clip0_2054_6930)">
<path d="M60.25 6.50537C61.9726 7.49993 63.2296 9.13807 63.7445 11.0594C64.2593 12.9808 63.9898 15.0279 62.9952 16.7506C62.0006 18.4732 60.3625 19.7302 58.4412 20.245C56.5198 20.7598 54.4726 20.4903 52.75 19.4958C51.0274 18.5012 49.7704 16.863 49.2556 14.9417C48.7407 13.0204 49.0103 10.9732 50.0048 9.25056C50.9994 7.52793 52.6375 6.27094 54.5589 5.75612C56.4802 5.24129 58.5274 5.51081 60.25 6.50537V6.50537ZM53.8927 10.954C53.7851 10.8918 53.6571 10.875 53.537 10.9072C53.417 10.9393 53.3146 11.0179 53.2524 11.1256C53.1903 11.2332 53.1734 11.3612 53.2056 11.4813C53.2378 11.6013 53.3163 11.7037 53.424 11.7659L58.1273 14.4814L55.3782 15.2173C55.3187 15.2332 55.2629 15.2608 55.214 15.2983C55.1651 15.3358 55.1241 15.3826 55.0932 15.436C55.0624 15.4893 55.0424 15.5483 55.0344 15.6094C55.0263 15.6705 55.0304 15.7326 55.0464 15.7921C55.0623 15.8516 55.0898 15.9075 55.1274 15.9563C55.1649 16.0052 55.2117 16.0463 55.265 16.0771C55.3184 16.1079 55.3773 16.1279 55.4385 16.136C55.4996 16.144 55.5617 16.1399 55.6212 16.124L59.4631 15.0945C59.5227 15.0787 59.5786 15.0512 59.6275 15.0137C59.6764 14.9762 59.7175 14.9294 59.7483 14.876C59.7792 14.8226 59.7992 14.7636 59.8072 14.7025C59.8152 14.6414 59.811 14.5792 59.795 14.5197L58.7656 10.6778C58.7496 10.6182 58.7221 10.5624 58.6846 10.5135C58.647 10.4646 58.6003 10.4236 58.5469 10.3928C58.4935 10.362 58.4346 10.342 58.3735 10.3339C58.3124 10.3259 58.2503 10.3299 58.1907 10.3459C58.1312 10.3618 58.0754 10.3894 58.0265 10.4269C57.9776 10.4644 57.9366 10.5112 57.9057 10.5646C57.8749 10.6179 57.8549 10.6769 57.8469 10.738C57.8388 10.7991 57.8429 10.8612 57.8589 10.9207L58.5961 13.6695L53.8927 10.954Z" fill="black"/>
</g>
<defs>
<clipPath id="clip0_2054_6930">
<rect width="15" height="15" fill="white" transform="translate(53.7548 2.75537) rotate(30)"/>
</clipPath>
</defs>
</svg>
