<svg width="64" height="18" viewBox="0 0 64 18" fill="none" xmlns="http://www.w3.org/2000/svg">
<rect y="0.000488281" width="64" height="18" rx="5" fill="#E44258"/>
<path d="M10.1792 13.0845C9.38717 13.0845 8.65917 12.9005 7.99517 12.5325C7.33917 12.1645 6.81517 11.6525 6.42317 10.9965C6.03917 10.3325 5.84717 9.58849 5.84717 8.76449C5.84717 7.94049 6.03917 7.20049 6.42317 6.54449C6.81517 5.88849 7.33917 5.37649 7.99517 5.00849C8.65917 4.64049 9.38717 4.45649 10.1792 4.45649C10.9712 4.45649 11.6952 4.64049 12.3512 5.00849C13.0152 5.37649 13.5352 5.88849 13.9112 6.54449C14.2952 7.20049 14.4872 7.94049 14.4872 8.76449C14.4872 9.58849 14.2952 10.3325 13.9112 10.9965C13.5272 11.6525 13.0072 12.1645 12.3512 12.5325C11.6952 12.9005 10.9712 13.0845 10.1792 13.0845ZM10.1792 11.2125C10.8512 11.2125 11.3872 10.9885 11.7872 10.5405C12.1952 10.0925 12.3992 9.50049 12.3992 8.76449C12.3992 8.02049 12.1952 7.42849 11.7872 6.98849C11.3872 6.54049 10.8512 6.31649 10.1792 6.31649C9.49917 6.31649 8.95517 6.53649 8.54717 6.97649C8.14717 7.41649 7.94717 8.01249 7.94717 8.76449C7.94717 9.50849 8.14717 10.1045 8.54717 10.5525C8.95517 10.9925 9.49917 11.2125 10.1792 11.2125ZM18.6408 11.0805L20.0928 6.30449H22.2768L19.9008 13.0005H17.3688L14.9928 6.30449H17.1888L18.6408 11.0805ZM29.4525 9.54449C29.4525 9.73649 29.4405 9.93649 29.4165 10.1445H24.7725C24.8045 10.5605 24.9365 10.8805 25.1685 11.1045C25.4085 11.3205 25.7005 11.4285 26.0445 11.4285C26.5565 11.4285 26.9125 11.2125 27.1125 10.7805H29.2965C29.1845 11.2205 28.9805 11.6165 28.6845 11.9685C28.3965 12.3205 28.0325 12.5965 27.5925 12.7965C27.1525 12.9965 26.6605 13.0965 26.1165 13.0965C25.4605 13.0965 24.8765 12.9565 24.3645 12.6765C23.8525 12.3965 23.4525 11.9965 23.1645 11.4765C22.8765 10.9565 22.7325 10.3485 22.7325 9.65249C22.7325 8.95649 22.8725 8.34849 23.1525 7.82849C23.4405 7.30849 23.8405 6.90849 24.3525 6.62849C24.8645 6.34849 25.4525 6.20849 26.1165 6.20849C26.7645 6.20849 27.3405 6.34449 27.8445 6.61649C28.3485 6.88849 28.7405 7.27649 29.0205 7.78049C29.3085 8.28449 29.4525 8.87249 29.4525 9.54449ZM27.3525 9.00449C27.3525 8.65249 27.2325 8.37249 26.9925 8.16449C26.7525 7.95649 26.4525 7.85249 26.0925 7.85249C25.7485 7.85249 25.4565 7.95249 25.2165 8.15249C24.9845 8.35249 24.8405 8.63649 24.7845 9.00449H27.3525ZM32.587 7.42049C32.827 7.05249 33.127 6.76449 33.487 6.55649C33.847 6.34049 34.247 6.23249 34.687 6.23249V8.40449H34.123C33.611 8.40449 33.227 8.51649 32.971 8.74049C32.715 8.95649 32.587 9.34049 32.587 9.89249V13.0005H30.535V6.30449H32.587V7.42049ZM35.2598 9.64049C35.2598 8.95249 35.3878 8.34849 35.6438 7.82849C35.9078 7.30849 36.2638 6.90849 36.7118 6.62849C37.1598 6.34849 37.6598 6.20849 38.2118 6.20849C38.6518 6.20849 39.0518 6.30049 39.4118 6.48449C39.7798 6.66849 40.0678 6.91649 40.2758 7.22849V4.12049H42.3278V13.0005H40.2758V12.0405C40.0838 12.3605 39.8078 12.6165 39.4478 12.8085C39.0958 13.0005 38.6838 13.0965 38.2118 13.0965C37.6598 13.0965 37.1598 12.9565 36.7118 12.6765C36.2638 12.3885 35.9078 11.9845 35.6438 11.4645C35.3878 10.9365 35.2598 10.3285 35.2598 9.64049ZM40.2758 9.65249C40.2758 9.14049 40.1318 8.73649 39.8438 8.44049C39.5638 8.14449 39.2198 7.99649 38.8118 7.99649C38.4038 7.99649 38.0558 8.14449 37.7678 8.44049C37.4878 8.72849 37.3478 9.12849 37.3478 9.64049C37.3478 10.1525 37.4878 10.5605 37.7678 10.8645C38.0558 11.1605 38.4038 11.3085 38.8118 11.3085C39.2198 11.3085 39.5638 11.1605 39.8438 10.8645C40.1318 10.5685 40.2758 10.1645 40.2758 9.65249ZM50.4244 6.30449V13.0005H48.3724V12.0885C48.1644 12.3845 47.8804 12.6245 47.5204 12.8085C47.1684 12.9845 46.7764 13.0725 46.3444 13.0725C45.8324 13.0725 45.3804 12.9605 44.9884 12.7365C44.5964 12.5045 44.2924 12.1725 44.0764 11.7405C43.8604 11.3085 43.7524 10.8005 43.7524 10.2165V6.30449H45.7924V9.94049C45.7924 10.3885 45.9084 10.7365 46.1404 10.9845C46.3724 11.2325 46.6844 11.3565 47.0764 11.3565C47.4764 11.3565 47.7924 11.2325 48.0244 10.9845C48.2564 10.7365 48.3724 10.3885 48.3724 9.94049V6.30449H50.4244ZM58.2103 9.54449C58.2103 9.73649 58.1983 9.93649 58.1743 10.1445H53.5303C53.5623 10.5605 53.6943 10.8805 53.9263 11.1045C54.1663 11.3205 54.4583 11.4285 54.8023 11.4285C55.3143 11.4285 55.6703 11.2125 55.8703 10.7805H58.0543C57.9423 11.2205 57.7383 11.6165 57.4423 11.9685C57.1543 12.3205 56.7903 12.5965 56.3503 12.7965C55.9103 12.9965 55.4183 13.0965 54.8743 13.0965C54.2183 13.0965 53.6343 12.9565 53.1223 12.6765C52.6103 12.3965 52.2103 11.9965 51.9223 11.4765C51.6343 10.9565 51.4903 10.3485 51.4903 9.65249C51.4903 8.95649 51.6303 8.34849 51.9103 7.82849C52.1983 7.30849 52.5983 6.90849 53.1103 6.62849C53.6223 6.34849 54.2103 6.20849 54.8743 6.20849C55.5223 6.20849 56.0983 6.34449 56.6023 6.61649C57.1063 6.88849 57.4983 7.27649 57.7783 7.78049C58.0663 8.28449 58.2103 8.87249 58.2103 9.54449ZM56.1103 9.00449C56.1103 8.65249 55.9903 8.37249 55.7503 8.16449C55.5103 7.95649 55.2103 7.85249 54.8503 7.85249C54.5063 7.85249 54.2143 7.95249 53.9743 8.15249C53.7423 8.35249 53.5983 8.63649 53.5423 9.00449H56.1103Z" fill="white"/>
</svg>
