<svg width="16" height="25" viewBox="0 0 16 25" fill="none" xmlns="http://www.w3.org/2000/svg">
<path d="M7.83398 1.5625C8.66279 1.5625 9.45764 1.89174 10.0437 2.47779C10.6297 3.06384 10.959 3.8587 10.959 4.6875V10.9375H4.70898V4.6875C4.70898 3.8587 5.03822 3.06384 5.62428 2.47779C6.21033 1.89174 7.00518 1.5625 7.83398 1.5625ZM12.5215 10.9375V4.6875C12.5215 3.4443 12.0276 2.25201 11.1485 1.37294C10.2695 0.49386 9.07719 0 7.83398 0C6.59078 0 5.3985 0.49386 4.51942 1.37294C3.64034 2.25201 3.14648 3.4443 3.14648 4.6875V10.9375C2.31768 10.9375 1.52283 11.2667 0.936776 11.8528C0.350724 12.4388 0.0214844 13.2337 0.0214844 14.0625V21.875C0.0214844 22.7038 0.350724 23.4987 0.936776 24.0847C1.52283 24.6708 2.31768 25 3.14648 25H12.5215C13.3503 25 14.1451 24.6708 14.7312 24.0847C15.3172 23.4987 15.6465 22.7038 15.6465 21.875V14.0625C15.6465 13.2337 15.3172 12.4388 14.7312 11.8528C14.1451 11.2667 13.3503 10.9375 12.5215 10.9375Z" fill="#878787"/>
</svg>
