<svg width="320" height="36" viewBox="0 0 320 36" fill="none" xmlns="http://www.w3.org/2000/svg">
<path d="M0 5.00049C0 2.23906 2.23858 0.000488281 5 0.000488281H315C317.761 0.000488281 320 2.23906 320 5.00049V31.0005C320 33.7619 317.761 36.0005 315 36.0005H5C2.23858 36.0005 0 33.7619 0 31.0005V5.00049Z" fill="url(#paint0_radial_2072_6976)"/>
<path d="M125.594 13.1725L122.108 23.0005H119.112L115.626 13.1725H118.174L120.61 20.5925L123.06 13.1725H125.594ZM127.799 14.3765C127.379 14.3765 127.033 14.2552 126.763 14.0125C126.501 13.7605 126.371 13.4525 126.371 13.0885C126.371 12.7152 126.501 12.4072 126.763 12.1645C127.033 11.9125 127.379 11.7865 127.799 11.7865C128.209 11.7865 128.545 11.9125 128.807 12.1645C129.077 12.4072 129.213 12.7152 129.213 13.0885C129.213 13.4525 129.077 13.7605 128.807 14.0125C128.545 14.2552 128.209 14.3765 127.799 14.3765ZM128.989 15.1885V23.0005H126.595V15.1885H128.989ZM138.087 18.9685C138.087 19.1925 138.073 19.4258 138.045 19.6685H132.627C132.665 20.1538 132.819 20.5272 133.089 20.7885C133.369 21.0405 133.71 21.1665 134.111 21.1665C134.709 21.1665 135.124 20.9145 135.357 20.4105H137.905C137.775 20.9238 137.537 21.3858 137.191 21.7965C136.855 22.2072 136.431 22.5292 135.917 22.7625C135.404 22.9958 134.83 23.1125 134.195 23.1125C133.43 23.1125 132.749 22.9492 132.151 22.6225C131.554 22.2958 131.087 21.8292 130.751 21.2225C130.415 20.6158 130.247 19.9065 130.247 19.0945C130.247 18.2825 130.411 17.5732 130.737 16.9665C131.073 16.3598 131.54 15.8932 132.137 15.5665C132.735 15.2398 133.421 15.0765 134.195 15.0765C134.951 15.0765 135.623 15.2352 136.211 15.5525C136.799 15.8698 137.257 16.3225 137.583 16.9105C137.919 17.4985 138.087 18.1845 138.087 18.9685ZM135.637 18.3385C135.637 17.9278 135.497 17.6012 135.217 17.3585C134.937 17.1158 134.587 16.9945 134.167 16.9945C133.766 16.9945 133.425 17.1112 133.145 17.3445C132.875 17.5778 132.707 17.9092 132.641 18.3385H135.637ZM150.564 15.1885L148.45 23.0005H145.804L144.572 17.9325L143.298 23.0005H140.666L138.538 15.1885H140.932L142.038 20.7745L143.354 15.1885H145.888L147.218 20.7465L148.31 15.1885H150.564ZM158.126 13.1725C159.162 13.1725 160.068 13.3778 160.842 13.7885C161.617 14.1992 162.214 14.7778 162.634 15.5245C163.064 16.2618 163.278 17.1158 163.278 18.0865C163.278 19.0478 163.064 19.9018 162.634 20.6485C162.214 21.3952 161.612 21.9738 160.828 22.3845C160.054 22.7952 159.153 23.0005 158.126 23.0005H154.444V13.1725H158.126ZM157.972 20.9285C158.878 20.9285 159.582 20.6812 160.086 20.1865C160.59 19.6918 160.842 18.9918 160.842 18.0865C160.842 17.1812 160.59 16.4765 160.086 15.9725C159.582 15.4685 158.878 15.2165 157.972 15.2165H156.838V20.9285H157.972ZM171.98 18.9685C171.98 19.1925 171.966 19.4258 171.938 19.6685H166.52C166.557 20.1538 166.711 20.5272 166.982 20.7885C167.262 21.0405 167.603 21.1665 168.004 21.1665C168.601 21.1665 169.017 20.9145 169.25 20.4105H171.798C171.667 20.9238 171.429 21.3858 171.084 21.7965C170.748 22.2072 170.323 22.5292 169.81 22.7625C169.297 22.9958 168.723 23.1125 168.088 23.1125C167.323 23.1125 166.641 22.9492 166.044 22.6225C165.447 22.2958 164.98 21.8292 164.644 21.2225C164.308 20.6158 164.14 19.9065 164.14 19.0945C164.14 18.2825 164.303 17.5732 164.63 16.9665C164.966 16.3598 165.433 15.8932 166.03 15.5665C166.627 15.2398 167.313 15.0765 168.088 15.0765C168.844 15.0765 169.516 15.2352 170.104 15.5525C170.692 15.8698 171.149 16.3225 171.476 16.9105C171.812 17.4985 171.98 18.1845 171.98 18.9685ZM169.53 18.3385C169.53 17.9278 169.39 17.6012 169.11 17.3585C168.83 17.1158 168.48 16.9945 168.06 16.9945C167.659 16.9945 167.318 17.1112 167.038 17.3445C166.767 17.5778 166.599 17.9092 166.534 18.3385H169.53ZM177.597 20.9705V23.0005H176.379C175.511 23.0005 174.834 22.7905 174.349 22.3705C173.864 21.9412 173.621 21.2458 173.621 20.2845V17.1765H172.669V15.1885H173.621V13.2845H176.015V15.1885H177.583V17.1765H176.015V20.3125C176.015 20.5458 176.071 20.7138 176.183 20.8165C176.295 20.9192 176.482 20.9705 176.743 20.9705H177.597ZM178.455 19.0805C178.455 18.2778 178.604 17.5732 178.903 16.9665C179.211 16.3598 179.626 15.8932 180.149 15.5665C180.671 15.2398 181.255 15.0765 181.899 15.0765C182.449 15.0765 182.93 15.1885 183.341 15.4125C183.761 15.6365 184.083 15.9305 184.307 16.2945V15.1885H186.701V23.0005H184.307V21.8945C184.073 22.2585 183.747 22.5525 183.327 22.7765C182.916 23.0005 182.435 23.1125 181.885 23.1125C181.25 23.1125 180.671 22.9492 180.149 22.6225C179.626 22.2865 179.211 21.8152 178.903 21.2085C178.604 20.5925 178.455 19.8832 178.455 19.0805ZM184.307 19.0945C184.307 18.4972 184.139 18.0258 183.803 17.6805C183.476 17.3352 183.075 17.1625 182.599 17.1625C182.123 17.1625 181.717 17.3352 181.381 17.6805C181.054 18.0165 180.891 18.4832 180.891 19.0805C180.891 19.6778 181.054 20.1538 181.381 20.5085C181.717 20.8538 182.123 21.0265 182.599 21.0265C183.075 21.0265 183.476 20.8538 183.803 20.5085C184.139 20.1632 184.307 19.6918 184.307 19.0945ZM189.636 14.3765C189.216 14.3765 188.871 14.2552 188.6 14.0125C188.339 13.7605 188.208 13.4525 188.208 13.0885C188.208 12.7152 188.339 12.4072 188.6 12.1645C188.871 11.9125 189.216 11.7865 189.636 11.7865C190.047 11.7865 190.383 11.9125 190.644 12.1645C190.915 12.4072 191.05 12.7152 191.05 13.0885C191.05 13.4525 190.915 13.7605 190.644 14.0125C190.383 14.2552 190.047 14.3765 189.636 14.3765ZM190.826 15.1885V23.0005H188.432V15.1885H190.826ZM194.955 12.6405V23.0005H192.561V12.6405H194.955ZM199.868 23.1125C199.187 23.1125 198.58 22.9958 198.048 22.7625C197.516 22.5292 197.096 22.2118 196.788 21.8105C196.48 21.3998 196.308 20.9425 196.27 20.4385H198.636C198.664 20.7092 198.79 20.9285 199.014 21.0965C199.238 21.2645 199.514 21.3485 199.84 21.3485C200.139 21.3485 200.368 21.2925 200.526 21.1805C200.694 21.0592 200.778 20.9052 200.778 20.7185C200.778 20.4945 200.662 20.3312 200.428 20.2285C200.195 20.1165 199.817 19.9952 199.294 19.8645C198.734 19.7338 198.268 19.5985 197.894 19.4585C197.521 19.3092 197.199 19.0805 196.928 18.7725C196.658 18.4552 196.522 18.0305 196.522 17.4985C196.522 17.0505 196.644 16.6445 196.886 16.2805C197.138 15.9072 197.502 15.6132 197.978 15.3985C198.464 15.1838 199.038 15.0765 199.7 15.0765C200.68 15.0765 201.45 15.3192 202.01 15.8045C202.58 16.2898 202.906 16.9338 202.99 17.7365H200.778C200.741 17.4658 200.62 17.2512 200.414 17.0925C200.218 16.9338 199.957 16.8545 199.63 16.8545C199.35 16.8545 199.136 16.9105 198.986 17.0225C198.837 17.1252 198.762 17.2698 198.762 17.4565C198.762 17.6805 198.879 17.8485 199.112 17.9605C199.355 18.0725 199.728 18.1845 200.232 18.2965C200.811 18.4458 201.282 18.5952 201.646 18.7445C202.01 18.8845 202.328 19.1178 202.598 19.4445C202.878 19.7618 203.023 20.1912 203.032 20.7325C203.032 21.1898 202.902 21.6005 202.64 21.9645C202.388 22.3192 202.02 22.5992 201.534 22.8045C201.058 23.0098 200.503 23.1125 199.868 23.1125Z" fill="white"/>
<defs>
<radialGradient id="paint0_radial_2072_6976" cx="0" cy="0" r="1" gradientUnits="userSpaceOnUse" gradientTransform="translate(160 0.000488281) rotate(90) scale(38.4 333.309)">
<stop stop-color="#E79500"/>
<stop offset="1" stop-color="#FF8A00"/>
</radialGradient>
</defs>
</svg>
