<svg width="32" height="32" viewBox="0 0 32 32" fill="none" xmlns="http://www.w3.org/2000/svg">
<g clip-path="url(#clip0_2109_24049)">
<path d="M22.3767 17.3451C22.3319 17.192 22.2167 17.0669 22.0637 17.011C22.0329 16.9997 21.7826 16.9111 21.3938 16.8542C23.0547 15.0869 22.5063 13.0221 22.3767 12.6188C22.3319 12.4656 22.2167 12.3406 22.0637 12.2846C21.9924 12.2585 20.7493 11.8201 19.3329 12.3131C19.4128 11.985 19.4596 11.6243 19.4596 11.2285C19.4596 8.69618 17.542 7.58316 17.1571 7.38557C17.0171 7.30889 16.8472 7.30188 16.6995 7.37054C16.6043 7.41477 14.3672 8.48539 14.3672 11.2285C14.3672 11.6251 14.4141 11.9866 14.4944 12.3152C13.0756 11.8189 11.829 12.2584 11.7576 12.2846C11.6046 12.3406 11.4895 12.4656 11.4447 12.6188C11.315 13.0221 10.7666 15.0869 12.4276 16.8542C12.0388 16.9111 11.7885 16.9997 11.7576 17.011C11.6046 17.0669 11.4895 17.192 11.4446 17.3452C11.3123 17.7569 10.7432 19.9001 12.5339 21.6907C13.5701 22.7269 14.7202 22.9741 15.5819 22.9741C15.9009 22.9741 16.1797 22.9402 16.3992 22.8999V26.2226C16.3992 26.503 16.6266 26.7304 16.907 26.7304C17.1875 26.7304 17.4149 26.503 17.4149 26.2226V22.8986C17.6354 22.9394 17.917 22.9741 18.2394 22.9741C19.101 22.9741 20.2513 22.7268 21.2874 21.6907C23.0781 19.9 22.509 17.7568 22.3767 17.3451ZM16.3992 21.3169C16.388 21.5473 16.3556 21.7411 16.3247 21.8804C15.7819 22.001 14.4238 22.1443 13.2521 20.9725C12.098 19.8185 12.2189 18.4829 12.3467 17.9001C12.688 17.8259 13.354 17.7433 14.0913 17.9826C14.1399 18.0007 14.1883 18.0179 14.2364 18.0339C14.6269 18.182 15.0324 18.4237 15.4166 18.8079C16.1488 19.5401 16.3675 20.345 16.3992 20.978V21.3169ZM16.3992 16.5906C16.388 16.8211 16.3556 17.0148 16.3247 17.1541C15.9884 17.2289 15.3391 17.3119 14.6151 17.0859C14.5417 17.0576 14.4687 17.0319 14.3963 17.0086C14.0175 16.859 13.6254 16.6195 13.252 16.2462C12.098 15.0921 12.2189 13.7566 12.3467 13.1739C12.889 13.056 14.2509 12.9159 15.4166 14.0816C15.424 14.0891 15.4307 14.0965 15.438 14.1039C15.4825 14.1539 15.5272 14.2016 15.5719 14.2475C16.1797 14.9336 16.3699 15.6662 16.3992 16.2518V16.5906ZM16.9142 14.0427C16.7551 13.9406 16.5257 13.7724 16.2928 13.5292C16.269 13.5031 16.245 13.4771 16.2203 13.4511C15.7961 12.9798 15.3827 12.2569 15.3827 11.2285C15.3827 9.57318 16.442 8.71431 16.9108 8.41531C17.4128 8.73656 18.4439 9.59542 18.4439 11.2285C18.4439 12.1989 18.0798 12.8952 17.6841 13.3659C17.6018 13.4482 17.5249 13.5314 17.4523 13.615C17.2493 13.8124 17.0548 13.9531 16.9142 14.0427ZM17.418 16.426C17.4173 15.8298 17.5715 15.0409 18.2029 14.3C18.2777 14.2257 18.3529 14.1457 18.4275 14.0597C19.5928 12.9135 20.935 13.0535 21.4744 13.1729C21.6022 13.7551 21.724 15.0915 20.5692 16.2462C20.1966 16.6189 19.8052 16.8582 19.4271 17.0079C19.3534 17.0315 19.2792 17.0577 19.2046 17.0865C18.4807 17.3121 17.8318 17.2288 17.4968 17.1542C17.4592 16.985 17.4194 16.7364 17.418 16.439C17.418 16.4346 17.418 16.4303 17.418 16.426ZM20.5692 20.9725C19.3973 22.1445 18.0392 22.0009 17.4976 21.8808C17.3796 21.3406 17.2368 19.9758 18.4047 18.8079C18.7783 18.4343 19.1708 18.1947 19.5499 18.0451C19.6222 18.0219 19.6949 17.9963 19.7681 17.968C20.4905 17.7426 21.1383 17.8248 21.4744 17.8991C21.6022 18.4814 21.724 19.8178 20.5692 20.9725Z" fill="#D6D6D6"/>
<path d="M11.7463 3.34729C10.8858 3.62733 10.0487 4.00068 9.25833 4.45703C6.25113 6.19324 4.10002 8.99657 3.20132 12.3507C2.30259 15.7048 2.76379 19.2082 4.5 22.2154C5.94671 24.7211 8.20197 26.6804 10.875 27.7631C10.8566 28.1302 10.9433 28.4952 11.1315 28.8211C11.3892 29.2675 11.8053 29.5868 12.3032 29.7202C12.801 29.8536 13.3211 29.7851 13.7675 29.5274C14.2138 29.2697 14.5332 28.8536 14.6666 28.3557C14.8 27.8578 14.7315 27.3378 14.4738 26.8914C14.2161 26.445 13.7999 26.1258 13.3021 25.9923C12.8042 25.8589 12.2841 25.9273 11.8378 26.1851C11.5732 26.3378 11.3537 26.5466 11.1907 26.7947C8.75542 25.7914 6.70142 23.9971 5.37956 21.7076C2.07545 15.9847 4.04326 8.6407 9.76614 5.33659C10.4954 4.91556 11.2673 4.57121 12.0606 4.31306C12.3274 4.22615 12.4731 3.93969 12.3863 3.67302C12.2995 3.40631 12.013 3.2605 11.7463 3.34729ZM11.9197 27.6196C11.9849 27.3762 12.143 27.182 12.3458 27.065C12.5485 26.9479 12.7958 26.9081 13.0392 26.9733C13.275 27.0365 13.4721 27.1877 13.5942 27.3992C13.7163 27.6106 13.7487 27.8569 13.6855 28.0928C13.5551 28.5797 13.0528 28.8696 12.566 28.7391C12.3302 28.676 12.1331 28.5247 12.011 28.3133C11.8889 28.1018 11.8565 27.8555 11.9197 27.6196Z" fill="#D6D6D6"/>
<path d="M21.9745 3.94968C21.993 3.58262 21.9063 3.21756 21.7181 2.89168C21.4604 2.4453 21.0442 2.12599 20.5464 1.99259C20.0485 1.85915 19.5285 1.92765 19.0821 2.18536C18.6357 2.44308 18.3164 2.85923 18.183 3.35708C18.0496 3.85494 18.1181 4.37499 18.3758 4.82137C18.6335 5.26774 19.0497 5.58705 19.5475 5.72046C20.0454 5.8539 20.5654 5.7854 21.0118 5.52768C21.2764 5.37491 21.4959 5.16617 21.6589 4.91804C24.0942 5.92141 26.1482 7.71571 27.47 10.0052C30.7741 15.7281 28.8063 23.0721 23.0834 26.3762C22.4678 26.7317 21.8196 27.0335 21.1569 27.2733C20.8934 27.3688 20.7567 27.6599 20.8523 27.9237C20.9477 28.1874 21.2388 28.3238 21.5026 28.2284C22.2213 27.9682 22.924 27.641 23.5913 27.2558C26.5985 25.5196 28.7495 22.7162 29.6483 19.3621C30.5471 16.008 30.0858 12.5046 28.3496 9.49743C26.9029 6.99166 24.6476 5.03239 21.9745 3.94968ZM20.9299 4.09308C20.8668 4.3289 20.7155 4.52602 20.504 4.6481C20.2926 4.77018 20.0463 4.80269 19.8104 4.73942C19.3235 4.609 19.0336 4.10682 19.1641 3.61992C19.2272 3.38409 19.3785 3.18697 19.59 3.0649C19.8014 2.94282 20.0477 2.91038 20.2836 2.97358C20.5194 3.03673 20.7165 3.18802 20.8386 3.39947C20.9607 3.61091 20.9931 3.85722 20.9299 4.09308Z" fill="#D6D6D6"/>
<path d="M12.4497 16.3609L12.2579 16.8311L12.4483 16.3604C12.1881 16.2553 11.8923 16.3808 11.7872 16.6408C11.682 16.9008 11.8076 17.1968 12.0676 17.302L12.0833 17.3082C12.1432 17.3311 12.2048 17.342 12.2655 17.342C12.47 17.342 12.6633 17.2181 12.7407 17.0162C12.8411 16.7542 12.7116 16.4612 12.4497 16.3609Z" fill="#D6D6D6"/>
<path d="M21.7798 16.3633L21.7708 16.3597C21.5104 16.2555 21.2149 16.3822 21.1107 16.6426C21.0065 16.903 21.1332 17.1985 21.3936 17.3027L21.3994 17.305C21.4617 17.3302 21.5261 17.3421 21.5895 17.3421C21.7903 17.3421 21.9806 17.2221 22.0604 17.0244C22.1655 16.7643 22.0399 16.4684 21.7798 16.3633Z" fill="#D6D6D6"/>
</g>
<defs>
<clipPath id="clip0_2109_24049">
<rect width="32" height="32" fill="white"/>
</clipPath>
</defs>
</svg>
