<svg width="32" height="32" viewBox="0 0 32 32" fill="none" xmlns="http://www.w3.org/2000/svg">
<path fill-rule="evenodd" clip-rule="evenodd" d="M4 12L9 4H24L29 12V12.5V28H4V12ZM27.775 12L23.4 5H9.59998L5.22498 12H27.775ZM5 13V27H28V13H5ZM13.9974 18C12.8943 18 12 18.8877 12 20C12 21.1046 12.8959 22 13.9974 22H19.0026C20.1057 22 21 21.1123 21 20C21 18.8954 20.1041 18 19.0026 18H13.9974ZM14.0029 19C13.449 19 13 19.4439 13 20C13 20.5523 13.4379 21 14.0029 21H18.9971C19.551 21 20 20.5561 20 20C20 19.4477 19.5621 19 18.9971 19H14.0029Z" fill="#D6D6D6"/>
</svg>
