<svg width="32" height="37" viewBox="0 0 32 37" fill="none" xmlns="http://www.w3.org/2000/svg">
<path fill-rule="evenodd" clip-rule="evenodd" d="M25.5636 12.8632L19.7475 6.18948C19.4934 5.89813 19.1489 5.73443 18.7897 5.73438H8.35428C7.60633 5.73438 7 6.4298 7 7.28764V30.0689C7 30.9268 7.60633 31.6222 8.35428 31.6222H24.6057C25.3536 31.6222 25.9599 30.9268 25.9599 30.0689V13.9608C25.9599 13.5491 25.8173 13.1543 25.5636 12.8632ZM24.3916 12.9831H20.0879C19.8394 12.9827 19.6378 12.7524 19.6365 12.4674L19.6197 7.50729L24.3916 12.9831ZM24.6056 30.5868C24.855 30.5868 25.0571 30.355 25.0571 30.069V14.0186H20.0878C19.3425 14.0171 18.7378 13.3263 18.7336 12.4715L18.7141 6.77003H8.35426C8.10494 6.77003 7.90283 7.00183 7.90283 7.28778V30.069C7.90283 30.355 8.10494 30.5868 8.35426 30.5868H24.6056ZM11.5143 18.7897C11.5143 18.5037 11.7164 18.2719 11.9657 18.2719H17.3828C17.6322 18.2719 17.8343 18.5037 17.8343 18.7897C17.8343 19.0756 17.6322 19.3074 17.3828 19.3074H11.9657C11.7164 19.3074 11.5143 19.0756 11.5143 18.7897ZM20.9943 25.2978C21.2436 25.2978 21.4457 25.066 21.4457 24.78C21.4457 24.4941 21.2436 24.2622 20.9943 24.2622H11.9657C11.7164 24.2622 11.5143 24.4941 11.5143 24.78C11.5143 25.066 11.7164 25.2978 11.9657 25.2978H20.9943Z" fill="#D6D6D6"/>
</svg>
