<svg width="32" height="32" viewBox="0 0 32 32" fill="none" xmlns="http://www.w3.org/2000/svg">
<path d="M16.5 4.76234L19.329 8.01832C19.4421 8.14853 19.6144 8.21123 19.7848 8.18421L24.0448 7.50843L24.1191 11.8211C24.122 11.9936 24.2137 12.1523 24.3616 12.2411L28.0593 14.4618L25.3441 17.8132C25.2355 17.9472 25.2037 18.1278 25.2599 18.2908L26.6651 22.3688L22.4308 23.1908C22.2615 23.2237 22.1211 23.3415 22.0593 23.5026L20.5145 27.5298L16.7425 25.4377C16.5917 25.3541 16.4083 25.3541 16.2575 25.4377L12.4855 27.5298L10.9407 23.5026C10.8789 23.3415 10.7385 23.2237 10.5692 23.1908L6.33489 22.3688L7.74015 18.2908C7.79635 18.1278 7.76451 17.9472 7.65592 17.8132L4.94066 14.4618L8.63843 12.2411C8.78631 12.1523 8.87797 11.9936 8.88094 11.8211L8.95518 7.50843L13.2152 8.18421C13.3856 8.21123 13.5579 8.14853 13.671 8.01832L16.5 4.76234Z" stroke="#D6D6D6" stroke-linecap="round" stroke-linejoin="round"/>
<path d="M21 12L12 21" stroke="#D6D6D6" stroke-linecap="round"/>
<circle cx="14" cy="14" r="1.5" stroke="#D6D6D6"/>
<circle cx="19" cy="19" r="1.5" stroke="#D6D6D6"/>
</svg>
