<svg width="20" height="20" viewBox="0 0 20 20" fill="none" xmlns="http://www.w3.org/2000/svg">
<path d="M10 13.125C11.3807 13.125 12.5 12.0057 12.5 10.625C12.5 9.24429 11.3807 8.125 10 8.125C8.61929 8.125 7.5 9.24429 7.5 10.625C7.5 12.0057 8.61929 13.125 10 13.125Z" fill="white"/>
<path d="M16.875 5.625H14.5703C14.4531 5.625 14.3078 5.54922 14.1945 5.42969L13.1812 3.83047C13.1652 3.80509 13.1473 3.78093 13.1277 3.7582C12.7777 3.35 12.3047 3.125 11.7969 3.125H8.20312C7.69531 3.125 7.22227 3.35 6.87227 3.7582C6.85266 3.78093 6.83477 3.80509 6.81875 3.83047L5.80547 5.43203C5.71875 5.52656 5.59688 5.62734 5.46875 5.62734V5.31484C5.46875 5.14908 5.4029 4.99011 5.28569 4.8729C5.16848 4.75569 5.00951 4.68984 4.84375 4.68984H3.90625C3.74049 4.68984 3.58152 4.75569 3.46431 4.8729C3.3471 4.99011 3.28125 5.14908 3.28125 5.31484V5.62734H3.125C2.62788 5.62786 2.15126 5.82557 1.79975 6.17709C1.44823 6.52861 1.25052 7.00522 1.25 7.50234V15C1.25052 15.4971 1.44823 15.9737 1.79975 16.3253C2.15126 16.6768 2.62788 16.8745 3.125 16.875H16.875C17.3721 16.8745 17.8487 16.6768 18.2003 16.3253C18.5518 15.9737 18.7495 15.4971 18.75 15V7.5C18.7495 7.00288 18.5518 6.52626 18.2003 6.17475C17.8487 5.82323 17.3721 5.62552 16.875 5.625ZM10 14.375C9.25832 14.375 8.5333 14.1551 7.91661 13.743C7.29993 13.331 6.81928 12.7453 6.53545 12.0601C6.25162 11.3748 6.17736 10.6208 6.32206 9.89341C6.46675 9.16598 6.8239 8.4978 7.34835 7.97335C7.8728 7.4489 8.54098 7.09175 9.26841 6.94706C9.99584 6.80236 10.7498 6.87662 11.4351 7.16045C12.1203 7.44428 12.706 7.92493 13.118 8.54161C13.5301 9.1583 13.75 9.88332 13.75 10.625C13.7489 11.6192 13.3534 12.5724 12.6504 13.2754C11.9474 13.9784 10.9942 14.3739 10 14.375Z" fill="white"/>
</svg>
