<svg width="17" height="16" viewBox="0 0 17 16" fill="none" xmlns="http://www.w3.org/2000/svg">
<path d="M8.10944 0C3.69828 0 0.109436 3.58885 0.109436 8C0.109436 12.4112 3.69828 16 8.10944 16C12.5206 16 16.1094 12.4112 16.1094 8C16.1094 3.58885 12.5206 0 8.10944 0ZM12.2729 5.31885L7.10367 11.4727C7.04696 11.5402 6.97641 11.5948 6.89678 11.6327C6.81715 11.6706 6.7303 11.6909 6.64213 11.6923H6.63174C6.54549 11.6923 6.4602 11.6741 6.38142 11.639C6.30264 11.6039 6.23212 11.5526 6.17444 11.4885L3.95905 9.02692C3.90279 8.96725 3.85902 8.89693 3.83032 8.8201C3.80163 8.74327 3.78857 8.66148 3.79194 8.57953C3.7953 8.49758 3.81501 8.41714 3.84991 8.34292C3.88481 8.2687 3.93419 8.2022 3.99516 8.14734C4.05612 8.09247 4.12744 8.05035 4.20491 8.02345C4.28239 7.99654 4.36446 7.98539 4.44631 7.99065C4.52815 7.99592 4.60812 8.01749 4.68151 8.0541C4.7549 8.09071 4.82023 8.14162 4.87367 8.20385L6.61559 10.1392L11.3306 4.52731C11.4364 4.40503 11.586 4.32928 11.7471 4.31644C11.9083 4.3036 12.068 4.35469 12.1918 4.45868C12.3156 4.56266 12.3935 4.71119 12.4087 4.87215C12.4239 5.0331 12.3751 5.19357 12.2729 5.31885Z" fill="#34A853"/>
</svg>
